russian fatties margo silverdust {iarg}
Format                           : MPEG-PS
File size                        : 424 MiB
Duration                         : 21mn 12s
Overall bit rate                 : 2 793 Kbps

Video
ID                               : 224 (0xE0)
Format                           : MPEG Video
Format version                   : Version 1
Format settings, BVOP            : Yes
Format settings, Matrix          : Default
Duration                         : 21mn 12s
Bit rate mode                    : Constant
Bit rate                         : 2 600 Kbps
Width                            : 720 pixels
Height                           : 576 pixels
Display aspect ratio             : 5:4
Frame rate                       : 25.000 fps
Standard                         : PAL
Color space                      : YUV
Bit depth                        : 8 bits
Scan type                        : Progressive
Compression mode                 : Lossy
Bits/(Pixel*Frame)               : 0.251
Stream size                      : 396 MiB (93%)

Audio
ID                               : 192 (0xC0)
Format                           : MPEG Audio
Format version                   : Version 1
Format profile                   : Layer 2
Duration                         : 21mn 12s
Bit rate mode                    : Constant
Bit rate                         : 128 Kbps
Channel(s)                       : 2 channels
Sampling rate                    : 44.1 KHz
Compression mode                 : Lossy
Stream size                      : 19.4 MiB (5%)
[img]http://leetleech.org/images/73168342652259907640.jpg[/img]
    	[img]http://leetleech.org/images/73430458595722763119.jpg[/img]
    	[img]http://leetleech.org/images/62961004940592510088.jpg[/img]
    	[img]http://leetleech.org/images/64530071251327786828.jpg[/img]
    	[img]http://leetleech.org/images/09772026438628186726.jpg[/img]
    	[img]http://leetleech.org/images/59867512690536659208.jpg[/img]